Patient4_TMGait_0pt3_03_right_30_EMG.mot
version=1
nRows=13
nColumns=33
inDegrees=no
endheader
time	1LAddLong	2LGlutMax	3LGlutMed	4LIliopsoas	5LSemiMemb	6LBicFemLong	7LRecFem	8LVastMed	9LVastLat	10LGasMed	11LTibAnt	12lTibPost	13LPeroneusLong	14LSol	15LExtDigLong	16LFlexDigLong	17RAddLong	18RGlutMax	19RGlutMed	20RIliopsoas	21RSemiMemb	22RBicFemLong	23RRecFem	24RVastMed	25RVastLat	26RGasMed	27RTibAnt	28RTibPost	29RPeroneusLong	30RSol	31RExtDigLong	32RFlexDigLong
56.01	-0.007629	0.043793	0.11993	-0.009155	0.00351	-0.030212	-0.023193	0.050964	0.001984	-0.066376	0.003357	0.10391	0.26245	0.11993	0.007477	-0.001526	0.041199	-0.028381	-0.23422	0.12131	-0.11261	-0.16327	0.10651	-0.020905	-0.050507	-0.002289	-0.55298	-0.007324	0.04715	0.14053	-0.003052	-0.017395
56.011	-0.016174	0.067749	0.046692	0.004272	-0.003052	0.020905	0.037231	0.056915	0.039063	-0.20157	0.016479	-0.054321	0.28122	0.11963	0.001373	-0.00351	0.032654	-0.055237	-0.053558	0.087891	-0.10925	-0.16525	0.1239	-0.063934	-0.054169	-0.005646	-0.52109	-0.009308	0.051117	0.13611	-0.004578	-0.010223
56.012	-0.019379	0.1149	0.095367	-0.011292	-0.009003	-0.018616	0.013733	0.014038	0.054626	-0.50781	0.036469	-0.036316	-0.15823	0.032654	-0.001373	-0.001068	0.059357	-0.037537	-0.12573	0.09552	-0.11643	-0.168	0.15121	-0.070496	-0.050964	-0.00473	-0.17242	-0.009918	0.071259	0.045929	0.00061	-0.006866
56.013	-0.025177	0.13153	0.031128	0.010071	-0.001984	-0.15549	-0.09552	-0.002747	0.07843	-0.51422	0.025635	0.014038	0.090332	0.070801	-0.031586	0.005951	0.055237	-0.043488	-0.045319	-0.005188	-0.11276	-0.13809	0.1564	-0.075989	-0.030823	-0.004578	0.27008	-0.009766	0.005341	0.056915	-0.003052	0.000458
56.014	0.000916	0.17395	0.12817	0.00061	0.014191	-0.22079	-0.16922	-0.023956	0.11734	-0.10666	-0.005035	0.001984	0.064087	0.14923	-0.019531	0.006104	0.031128	0.014954	0.1088	-0.11536	-0.096283	-0.11658	0.12787	-0.072937	-0.014648	-0.011597	0.45715	-0.008698	-0.070038	0.12955	-0.003204	-0.008392
56.015	0.009766	0.11597	0.12344	-0.001678	0.01709	-0.33829	-0.19028	-0.02121	0.28442	-0.18707	0.007782	-0.006256	-0.082703	0.05127	-0.009613	0.000305	-0.03952	-0.046082	-0.096588	-0.023651	-0.08728	-0.11063	0.13519	-0.028076	-0.019226	-0.014648	0.41275	-0.007019	-0.059204	0.20477	0.011902	-0.005188
56.016	0.007782	0.064697	-0.001373	0.012512	0.028076	-0.26733	-0.1178	0.000153	0.27817	-0.31998	-0.007324	0.009918	0.35538	0.030975	0.031433	0.006104	-0.049744	-0.01709	-0.46921	0.055084	-0.09613	-0.11932	0.12665	-0.031586	-0.037079	-0.007782	-0.19089	-0.005798	0.11383	0.15976	-0.003052	0.00473
56.017	0.009003	0.17502	0.070648	0.001526	0.015564	-0.15961	-0.14206	0.007935	0.15243	-0.33386	-0.020599	-0.001221	0.20844	0.1207	0.010834	-0.000153	-0.048981	0.037231	-0.39063	0.072174	-0.095215	-0.13092	0.14374	-0.069427	-0.025024	0.000763	-0.81222	-0.002747	0.22827	0.11643	-0.002747	0.003204
56.018	0.007019	0.14358	-0.000916	0.009918	0.020142	-0.10223	-0.078125	0.001221	-0.045624	-0.22232	0.006866	-0.006256	-0.60303	0.17563	0.000916	-0.002136	-0.029907	0.13611	-0.066681	0.14282	-0.10788	-0.15579	0.17624	-0.056	-0.032806	-0.006561	-0.8577	-0.00412	0.12955	0.20309	-0.001984	0.000916
56.019	0.017853	0.065613	-0.099945	0.006866	0.023804	-0.06073	-0.069885	-0.002594	-0.20294	0.03067	0.016327	0.008392	-0.7077	0.1564	-0.043945	-0.003052	-0.059967	0.066223	0.13367	0.12451	-0.10788	-0.1358	0.13138	-0.057068	-0.032806	-0.015259	-0.62851	-0.003357	0.037079	0.17563	-0.002136	0.010529
56.02	0.01709	0.094147	-0.1561	0.022125	0.022278	-0.006409	-0.028381	0.002899	-0.20218	0.38605	-0.012665	0.011902	-0.17441	-0.05127	-0.10162	-0.025635	-0.048523	0.11108	0.41382	-0.21301	-0.10651	-0.14572	0.14969	-0.10346	-0.020752	-0.00946	-0.053558	0.005493	-0.082092	0.11292	-0.002136	0.003967
56.021	0.021667	0.16968	-0.14755	0.000763	0.011749	0.010834	-0.019073	0.004883	-0.065765	0.43655	-0.001984	0.049591	0.001526	-0.04776	-0.077362	-0.018005	-0.016479	0.056	0.37354	-0.16892	-0.10437	-0.12695	0.16541	-0.045624	-0.001221	-0.00412	-0.014648	0.032043	-0.080261	0.032959	-0.002594	0.001526
56.022	0.020599	0.24109	-0.18585	-0.015564	-0.00061	0.055237	0.089569	-0.000305	0.020752	0.14725	0.002441	0.009155	0.11063	0.31876	0.05661	-0.019226	0.002441	0.054779	-0.24612	-0.069733	-0.10132	-0.10864	0.0914	-0.03006	-0.001526	-0.00061	0.103	0.12772	-0.08606	-0.026703	-0.003052	0.003815
